<?xml version="1.0" encoding="UTF-8"?>
<svg width="40px" height="40px" viewBox="0 0 40 40" version="1.1" xmlns="http://www.w3.org/2000/svg" xmlns:xlink="http://www.w3.org/1999/xlink">
    <!-- Generator: Sketch 59.1 (86144) - https://sketch.com -->
    <title>bells1</title>
    <desc>Created with Sketch.</desc>
    <g id="bells1" stroke="none" stroke-width="1" fill="none" fill-rule="evenodd">
        <path d="M23,32 C23.5522847,32 24,32.4477153 24,33 L24,35 C24,35.5522847 23.5522847,36 23,36 L17,36 C16.4477153,36 16,35.5522847 16,35 L16,33 C16,32.4477153 16.4477153,32 17,32 L23,32 Z M20,4 C26.0751322,4 31,8.92486775 31,15 L31,27 L33,27 C33.5522847,27 34,27.4477153 34,28 L34,30 C34,30.5522847 33.5522847,31 33,31 L7,31 C6.44771525,31 6,30.5522847 6,30 L6,28 C6,27.4477153 6.44771525,27 7,27 L9,27 L9,15 C9,8.92486775 13.9248678,4 20,4 Z" id="形状结合" fill="#808080" fill-rule="nonzero" transform="translate(20.000000, 20.000000) rotate(-315.000000) translate(-20.000000, -20.000000) "></path>
    </g>
</svg>