<?xml version="1.0" encoding="UTF-8"?>
<svg width="17px" height="17px" viewBox="0 0 17 17" version="1.1" xmlns="http://www.w3.org/2000/svg" xmlns:xlink="http://www.w3.org/1999/xlink">
    <!-- Generator: Sketch 59.1 (86144) - https://sketch.com -->
    <title>楼层</title>
    <desc>Created with Sketch.</desc>
    <g id="E-基础配置" stroke="none" stroke-width="1" fill="none" fill-rule="evenodd">
        <g id="E1-基础配置-卖场管理" transform="translate(-572.000000, -304.000000)" stroke="#1A89FF" stroke-width="1.05">
            <g id="卖场卡片" transform="translate(259.000000, 216.000000)">
                <g id="楼层" transform="translate(313.000000, 88.000000)">
                    <g id="电话备份-4" transform="translate(-0.000000, 0.000000)">
                        <path d="M4.69017327,3.15 L12.1098267,3.15 C12.159038,3.15 12.2066863,3.16728265 12.2444544,3.19883119 L14.2556573,4.87883119 C14.3446684,4.95318401 14.3565512,5.08561662 14.2821984,5.17462769 C14.2422988,5.22239327 14.1832673,5.25 14.1210296,5.25 L2.67897041,5.25 C2.56299061,5.25 2.46897041,5.1559798 2.46897041,5.04 C2.46897041,4.97776233 2.49657714,4.91873078 2.54434272,4.87883119 L4.55554557,3.19883119 C4.59331374,3.16728265 4.64096204,3.15 4.69017327,3.15 Z" id="矩形备份"></path>
                        <path d="M4.69017327,7.35 L12.1098267,7.35 C12.159038,7.35 12.2066863,7.36728265 12.2444544,7.39883119 L14.2556573,9.07883119 C14.3446684,9.15318401 14.3565512,9.28561662 14.2821984,9.37462769 C14.2422988,9.42239327 14.1832673,9.45 14.1210296,9.45 L2.67897041,9.45 C2.56299061,9.45 2.46897041,9.3559798 2.46897041,9.24 C2.46897041,9.17776233 2.49657714,9.11873078 2.54434272,9.07883119 L4.55554557,7.39883119 C4.59331374,7.36728265 4.64096204,7.35 4.69017327,7.35 Z" id="矩形备份-2"></path>
                        <path d="M4.69017327,11.55 L12.1098267,11.55 C12.159038,11.55 12.2066863,11.5672826 12.2444544,11.5988312 L14.2556573,13.2788312 C14.3446684,13.353184 14.3565512,13.4856166 14.2821984,13.5746277 C14.2422988,13.6223933 14.1832673,13.65 14.1210296,13.65 L2.67897041,13.65 C2.56299061,13.65 2.46897041,13.5559798 2.46897041,13.44 C2.46897041,13.3777623 2.49657714,13.3187308 2.54434272,13.2788312 L4.55554557,11.5988312 C4.59331374,11.5672826 4.64096204,11.55 4.69017327,11.55 Z" id="矩形备份-3"></path>
                    </g>
                </g>
            </g>
        </g>
    </g>
</svg>