<?xml version="1.0" encoding="UTF-8"?>
<svg width="16px" height="16px" viewBox="0 0 16 16" version="1.1" xmlns="http://www.w3.org/2000/svg" xmlns:xlink="http://www.w3.org/1999/xlink">
    <!-- Generator: Sketch 59.1 (86144) - https://sketch.com -->
    <title>男性</title>
    <desc>Created with Sketch.</desc>
    <g id="A-客流概览" stroke="none" stroke-width="1" fill="none" fill-rule="evenodd">
        <g transform="translate(-1098.000000, -437.000000)" fill="#157DFF" fill-rule="nonzero" id="编组-3">
            <g transform="translate(259.000000, 87.000000)">
                <g id="头像" transform="translate(0.000000, 59.000000)">
                    <g transform="translate(108.000000, -487.000000)" id="男性">
                        <g transform="translate(731.000000, 778.000000)">
                            <path d="M14.2857143,0 L10.2857143,0 L10.2857143,1.71428572 L13.0736571,1.71428572 L10.5675143,4.22042858 C9.45982858,3.36885714 8.077,2.85714286 6.57142858,2.85714286 C2.94197142,2.85714286 0,5.79911428 0,9.42857142 C0,13.0580286 2.94197142,16 6.57142858,16 C10.2008857,16 13.1428572,13.0580286 13.1428572,9.42857142 C13.1428572,7.923 12.6311429,6.54017142 11.7795714,5.4324857 L14.2857143,2.92634286 L14.2857143,5.71428572 L16,5.71428572 L16,1.71428572 L16,0 L14.2857143,0 Z M6.57142858,14.2857143 C3.89342858,14.2857143 1.71428572,12.1065714 1.71428572,9.42857142 C1.71428572,6.75057142 3.89342858,4.57142856 6.57142858,4.57142856 C9.24942858,4.57142856 11.4285714,6.75057142 11.4285714,9.42857142 C11.4285714,12.1065714 9.24942858,14.2857143 6.57142858,14.2857143 Z" id="形状"></path>
                        </g>
                    </g>
                </g>
            </g>
        </g>
    </g>
</svg>