<?xml version="1.0" encoding="UTF-8"?>
<svg width="18px" height="18px" viewBox="0 0 18 18" version="1.1" xmlns="http://www.w3.org/2000/svg" xmlns:xlink="http://www.w3.org/1999/xlink">
    <!-- Generator: Sketch 59.1 (86144) - https://sketch.com -->
    <title>商铺</title>
    <desc>Created with Sketch.</desc>
    <g id="E-基础配置" stroke="none" stroke-width="1" fill="none" fill-rule="evenodd">
        <g id="E1-基础配置-卖场管理" transform="translate(-318.000000, -346.000000)" stroke="#1A89FF" stroke-width="1.05">
            <g id="卖场卡片" transform="translate(259.000000, 216.000000)">
                <g id="商铺数备份" transform="translate(59.950000, 130.800000)">
                    <g id="商铺">
                        <g id="电话备份-3" transform="translate(-0.000000, 0.000000)">
                            <path d="M4.2,7.35 L12.6,7.35 L12.6,13.65 C12.6,14.229899 12.129899,14.7 11.55,14.7 L5.25,14.7 C4.67010101,14.7 4.2,14.229899 4.2,13.65 L4.2,7.35 L4.2,7.35 Z" id="矩形"></path>
                            <path d="M5.69273295,2.1 L11.107267,2.1 C11.2877328,2.1 11.4555496,2.19268971 11.5516459,2.34544243 L14.1938549,6.54544243 C14.3482503,6.79086609 14.2744573,7.11498347 14.0290337,7.26937885 C13.945304,7.32205296 13.8483963,7.35 13.7494761,7.35 L3.05052392,7.35 C2.76057443,7.35 2.52552392,7.11494949 2.52552392,6.825 C2.52552392,6.72607975 2.55347096,6.62917208 2.60614507,6.54544243 L5.2483541,2.34544243 C5.34445043,2.19268971 5.51226717,2.1 5.69273295,2.1 Z" id="矩形备份"></path>
                        </g>
                    </g>
                </g>
            </g>
        </g>
    </g>
</svg>